<svg xmlns="http://www.w3.org/2000/svg" xmlns:xlink="http://www.w3.org/1999/xlink" width="500" zoomAndPan="magnify" viewBox="0 0 375 374.999991" height="500" preserveAspectRatio="xMidYMid meet" version="1.0"><defs><g/><clipPath id="e84bdb3b2e"><path d="M 231.15625 87 L 342.515625 87 L 342.515625 185.746094 L 231.15625 185.746094 Z M 231.15625 87 " clip-rule="nonzero"/></clipPath></defs><rect x="-37.5" width="450" fill="#ffffff" y="-37.499999" height="449.999989" fill-opacity="1"/><rect x="-37.5" width="450" fill="#ffffff" y="-37.499999" height="449.999989" fill-opacity="1"/><g clip-path="url(#e84bdb3b2e)"><path fill="#206b21" d="M 282.589844 174.128906 C 286.375 175.464844 290.226562 176.132812 294.144531 176.132812 C 303.765625 176.132812 313.738281 172.101562 323.960938 164.085938 C 328.058594 170.03125 332.175781 176.621094 336.207031 184.015625 C 336.828125 185.171875 338.03125 185.820312 339.257812 185.820312 C 339.8125 185.820312 340.390625 185.683594 340.925781 185.394531 C 342.617188 184.484375 343.21875 182.367188 342.308594 180.675781 C 337.875 172.570312 333.378906 165.378906 328.878906 158.945312 C 330.238281 157.007812 331.328125 154.867188 332.109375 152.597656 C 337.988281 135.273438 336.539062 121.023438 327.835938 110.226562 C 304.566406 81.347656 237.367188 88.582031 234.515625 88.917969 C 233.535156 89.027344 232.644531 89.5625 232.066406 90.363281 C 231.488281 91.164062 231.289062 92.191406 231.511719 93.148438 C 232.15625 95.953125 247.632812 161.75 282.589844 174.128906 Z M 322.445312 114.566406 C 329.546875 123.382812 330.59375 135.429688 325.539062 150.347656 C 325.25 151.21875 324.871094 152.042969 324.472656 152.84375 C 293.410156 111.871094 263.796875 106.839844 262.328125 106.617188 C 260.433594 106.328125 258.652344 107.640625 258.363281 109.535156 C 258.074219 111.425781 259.386719 113.207031 261.28125 113.5 C 261.613281 113.542969 290.046875 118.375 319.90625 158.410156 C 319.839844 158.476562 319.773438 158.542969 319.683594 158.609375 C 307.28125 168.316406 295.59375 171.347656 284.90625 167.5625 C 258.050781 158.074219 243.132812 109.625 239.28125 95.484375 C 253.910156 94.394531 304.542969 92.390625 322.445312 114.566406 Z M 322.445312 114.566406 " fill-opacity="1" fill-rule="nonzero"/></g><g fill="#122348" fill-opacity="1"><g transform="translate(28.864683, 167.993699)"><g><path d="M 19.484375 -40.25 C 22.285156 -40.25 24.738281 -39.679688 26.84375 -38.546875 C 28.957031 -37.410156 30.582031 -35.914062 31.71875 -34.0625 L 31.71875 -39.6875 L 43.890625 -39.6875 L 43.890625 -0.078125 C 43.890625 3.578125 43.164062 6.882812 41.71875 9.84375 C 40.269531 12.8125 38.0625 15.171875 35.09375 16.921875 C 32.132812 18.679688 28.453125 19.5625 24.046875 19.5625 C 18.160156 19.5625 13.390625 18.171875 9.734375 15.390625 C 6.085938 12.617188 4.003906 8.863281 3.484375 4.125 L 15.5 4.125 C 15.882812 5.644531 16.785156 6.84375 18.203125 7.71875 C 19.628906 8.59375 21.382812 9.03125 23.46875 9.03125 C 25.976562 9.03125 27.976562 8.304688 29.46875 6.859375 C 30.96875 5.410156 31.71875 3.097656 31.71875 -0.078125 L 31.71875 -5.6875 C 30.53125 -3.84375 28.894531 -2.335938 26.8125 -1.171875 C 24.726562 -0.015625 22.285156 0.5625 19.484375 0.5625 C 16.210938 0.5625 13.25 -0.273438 10.59375 -1.953125 C 7.9375 -3.640625 5.835938 -6.035156 4.296875 -9.140625 C 2.753906 -12.242188 1.984375 -15.835938 1.984375 -19.921875 C 1.984375 -23.992188 2.753906 -27.570312 4.296875 -30.65625 C 5.835938 -33.738281 7.9375 -36.109375 10.59375 -37.765625 C 13.25 -39.421875 16.210938 -40.25 19.484375 -40.25 Z M 31.71875 -19.84375 C 31.71875 -22.875 30.875 -25.265625 29.1875 -27.015625 C 27.507812 -28.773438 25.460938 -29.65625 23.046875 -29.65625 C 20.628906 -29.65625 18.578125 -28.789062 16.890625 -27.0625 C 15.210938 -25.332031 14.375 -22.953125 14.375 -19.921875 C 14.375 -16.878906 15.210938 -14.46875 16.890625 -12.6875 C 18.578125 -10.914062 20.628906 -10.03125 23.046875 -10.03125 C 25.460938 -10.03125 27.507812 -10.90625 29.1875 -12.65625 C 30.875 -14.414062 31.71875 -16.8125 31.71875 -19.84375 Z M 31.71875 -19.84375 "/></g></g></g><g fill="#122348" fill-opacity="1"><g transform="translate(77.157129, 167.993699)"><g><path d="M 16.578125 -33.078125 C 17.992188 -35.253906 19.769531 -36.96875 21.90625 -38.21875 C 24.039062 -39.476562 26.410156 -40.109375 29.015625 -40.109375 L 29.015625 -27.234375 L 25.671875 -27.234375 C 22.640625 -27.234375 20.363281 -26.582031 18.84375 -25.28125 C 17.332031 -23.976562 16.578125 -21.691406 16.578125 -18.421875 L 16.578125 0 L 4.40625 0 L 4.40625 -39.6875 L 16.578125 -39.6875 Z M 16.578125 -33.078125 "/></g></g></g><g fill="#122348" fill-opacity="1"><g transform="translate(107.597716, 167.993699)"><g><path d="M 41.828125 -20.484375 C 41.828125 -19.347656 41.753906 -18.160156 41.609375 -16.921875 L 14.078125 -16.921875 C 14.273438 -14.460938 15.070312 -12.578125 16.46875 -11.265625 C 17.863281 -9.960938 19.582031 -9.3125 21.625 -9.3125 C 24.65625 -9.3125 26.765625 -10.59375 27.953125 -13.15625 L 40.890625 -13.15625 C 40.234375 -10.550781 39.035156 -8.203125 37.296875 -6.109375 C 35.566406 -4.023438 33.398438 -2.390625 30.796875 -1.203125 C 28.191406 -0.0234375 25.273438 0.5625 22.046875 0.5625 C 18.160156 0.5625 14.695312 -0.265625 11.65625 -1.921875 C 8.625 -3.578125 6.253906 -5.945312 4.546875 -9.03125 C 2.835938 -12.113281 1.984375 -15.71875 1.984375 -19.84375 C 1.984375 -23.96875 2.828125 -27.570312 4.515625 -30.65625 C 6.203125 -33.738281 8.5625 -36.109375 11.59375 -37.765625 C 14.625 -39.421875 18.109375 -40.25 22.046875 -40.25 C 25.890625 -40.25 29.300781 -39.441406 32.28125 -37.828125 C 35.269531 -36.222656 37.609375 -33.925781 39.296875 -30.9375 C 40.984375 -27.945312 41.828125 -24.460938 41.828125 -20.484375 Z M 29.375 -23.6875 C 29.375 -25.769531 28.660156 -27.425781 27.234375 -28.65625 C 25.816406 -29.894531 24.039062 -30.515625 21.90625 -30.515625 C 19.863281 -30.515625 18.144531 -29.921875 16.75 -28.734375 C 15.351562 -27.546875 14.488281 -25.863281 14.15625 -23.6875 Z M 29.375 -23.6875 "/></g></g></g><g fill="#122348" fill-opacity="1"><g transform="translate(151.409417, 167.993699)"><g><path d="M 41.828125 -20.484375 C 41.828125 -19.347656 41.753906 -18.160156 41.609375 -16.921875 L 14.078125 -16.921875 C 14.273438 -14.460938 15.070312 -12.578125 16.46875 -11.265625 C 17.863281 -9.960938 19.582031 -9.3125 21.625 -9.3125 C 24.65625 -9.3125 26.765625 -10.59375 27.953125 -13.15625 L 40.890625 -13.15625 C 40.234375 -10.550781 39.035156 -8.203125 37.296875 -6.109375 C 35.566406 -4.023438 33.398438 -2.390625 30.796875 -1.203125 C 28.191406 -0.0234375 25.273438 0.5625 22.046875 0.5625 C 18.160156 0.5625 14.695312 -0.265625 11.65625 -1.921875 C 8.625 -3.578125 6.253906 -5.945312 4.546875 -9.03125 C 2.835938 -12.113281 1.984375 -15.71875 1.984375 -19.84375 C 1.984375 -23.96875 2.828125 -27.570312 4.515625 -30.65625 C 6.203125 -33.738281 8.5625 -36.109375 11.59375 -37.765625 C 14.625 -39.421875 18.109375 -40.25 22.046875 -40.25 C 25.890625 -40.25 29.300781 -39.441406 32.28125 -37.828125 C 35.269531 -36.222656 37.609375 -33.925781 39.296875 -30.9375 C 40.984375 -27.945312 41.828125 -24.460938 41.828125 -20.484375 Z M 29.375 -23.6875 C 29.375 -25.769531 28.660156 -27.425781 27.234375 -28.65625 C 25.816406 -29.894531 24.039062 -30.515625 21.90625 -30.515625 C 19.863281 -30.515625 18.144531 -29.921875 16.75 -28.734375 C 15.351562 -27.546875 14.488281 -25.863281 14.15625 -23.6875 Z M 29.375 -23.6875 "/></g></g></g><g fill="#122348" fill-opacity="1"><g transform="translate(195.221118, 167.993699)"><g><path d="M 28.59375 -40.109375 C 33.238281 -40.109375 36.945312 -38.601562 39.71875 -35.59375 C 42.5 -32.582031 43.890625 -28.445312 43.890625 -23.1875 L 43.890625 0 L 31.796875 0 L 31.796875 -21.546875 C 31.796875 -24.203125 31.109375 -26.265625 29.734375 -27.734375 C 28.359375 -29.203125 26.507812 -29.9375 24.1875 -29.9375 C 21.863281 -29.9375 20.015625 -29.203125 18.640625 -27.734375 C 17.265625 -26.265625 16.578125 -24.203125 16.578125 -21.546875 L 16.578125 0 L 4.40625 0 L 4.40625 -39.6875 L 16.578125 -39.6875 L 16.578125 -34.421875 C 17.804688 -36.179688 19.460938 -37.566406 21.546875 -38.578125 C 23.640625 -39.597656 25.988281 -40.109375 28.59375 -40.109375 Z M 28.59375 -40.109375 "/></g></g></g><g fill="#122348" fill-opacity="1"><g transform="translate(78.076677, 226.489711)"><g><path d="M 28.8125 -40.109375 C 33.363281 -40.109375 37.015625 -38.601562 39.765625 -35.59375 C 42.515625 -32.582031 43.890625 -28.445312 43.890625 -23.1875 L 43.890625 0 L 31.796875 0 L 31.796875 -21.546875 C 31.796875 -24.203125 31.109375 -26.265625 29.734375 -27.734375 C 28.359375 -29.203125 26.507812 -29.9375 24.1875 -29.9375 C 21.863281 -29.9375 20.015625 -29.203125 18.640625 -27.734375 C 17.265625 -26.265625 16.578125 -24.203125 16.578125 -21.546875 L 16.578125 0 L 4.40625 0 L 4.40625 -52.625 L 16.578125 -52.625 L 16.578125 -34.359375 C 17.804688 -36.109375 19.488281 -37.503906 21.625 -38.546875 C 23.757812 -39.585938 26.15625 -40.109375 28.8125 -40.109375 Z M 28.8125 -40.109375 "/></g></g></g><g fill="#122348" fill-opacity="1"><g transform="translate(126.01349, 226.489711)"><g><path d="M 22.46875 0.5625 C 18.582031 0.5625 15.085938 -0.265625 11.984375 -1.921875 C 8.878906 -3.578125 6.4375 -5.945312 4.65625 -9.03125 C 2.875 -12.113281 1.984375 -15.71875 1.984375 -19.84375 C 1.984375 -23.914062 2.882812 -27.503906 4.6875 -30.609375 C 6.488281 -33.722656 8.953125 -36.109375 12.078125 -37.765625 C 15.210938 -39.421875 18.726562 -40.25 22.625 -40.25 C 26.507812 -40.25 30.015625 -39.421875 33.140625 -37.765625 C 36.273438 -36.109375 38.742188 -33.722656 40.546875 -30.609375 C 42.347656 -27.503906 43.25 -23.914062 43.25 -19.84375 C 43.25 -15.769531 42.332031 -12.175781 40.5 -9.0625 C 38.675781 -5.957031 36.1875 -3.578125 33.03125 -1.921875 C 29.882812 -0.265625 26.363281 0.5625 22.46875 0.5625 Z M 22.46875 -9.953125 C 24.789062 -9.953125 26.769531 -10.804688 28.40625 -12.515625 C 30.050781 -14.222656 30.875 -16.664062 30.875 -19.84375 C 30.875 -23.019531 30.078125 -25.460938 28.484375 -27.171875 C 26.898438 -28.878906 24.945312 -29.734375 22.625 -29.734375 C 20.25 -29.734375 18.28125 -28.890625 16.71875 -27.203125 C 15.15625 -25.523438 14.375 -23.070312 14.375 -19.84375 C 14.375 -16.664062 15.140625 -14.222656 16.671875 -12.515625 C 18.210938 -10.804688 20.144531 -9.953125 22.46875 -9.953125 Z M 22.46875 -9.953125 "/></g></g></g><g fill="#122348" fill-opacity="1"><g transform="translate(171.318771, 226.489711)"><g><path d="M 55.046875 -40.109375 C 59.984375 -40.109375 63.910156 -38.613281 66.828125 -35.625 C 69.742188 -32.644531 71.203125 -28.5 71.203125 -23.1875 L 71.203125 0 L 59.109375 0 L 59.109375 -21.546875 C 59.109375 -24.109375 58.429688 -26.085938 57.078125 -27.484375 C 55.722656 -28.890625 53.863281 -29.59375 51.5 -29.59375 C 49.125 -29.59375 47.257812 -28.890625 45.90625 -27.484375 C 44.5625 -26.085938 43.890625 -24.109375 43.890625 -21.546875 L 43.890625 0 L 31.796875 0 L 31.796875 -21.546875 C 31.796875 -24.109375 31.117188 -26.085938 29.765625 -27.484375 C 28.410156 -28.890625 26.550781 -29.59375 24.1875 -29.59375 C 21.8125 -29.59375 19.945312 -28.890625 18.59375 -27.484375 C 17.25 -26.085938 16.578125 -24.109375 16.578125 -21.546875 L 16.578125 0 L 4.40625 0 L 4.40625 -39.6875 L 16.578125 -39.6875 L 16.578125 -34.703125 C 17.804688 -36.367188 19.414062 -37.6875 21.40625 -38.65625 C 23.394531 -39.625 25.648438 -40.109375 28.171875 -40.109375 C 31.148438 -40.109375 33.8125 -39.46875 36.15625 -38.1875 C 38.507812 -36.914062 40.347656 -35.09375 41.671875 -32.71875 C 43.046875 -34.894531 44.921875 -36.671875 47.296875 -38.046875 C 49.671875 -39.421875 52.253906 -40.109375 55.046875 -40.109375 Z M 55.046875 -40.109375 "/></g></g></g><g fill="#122348" fill-opacity="1"><g transform="translate(246.637886, 226.489711)"><g><path d="M 41.828125 -20.484375 C 41.828125 -19.347656 41.753906 -18.160156 41.609375 -16.921875 L 14.078125 -16.921875 C 14.273438 -14.460938 15.070312 -12.578125 16.46875 -11.265625 C 17.863281 -9.960938 19.582031 -9.3125 21.625 -9.3125 C 24.65625 -9.3125 26.765625 -10.59375 27.953125 -13.15625 L 40.890625 -13.15625 C 40.234375 -10.550781 39.035156 -8.203125 37.296875 -6.109375 C 35.566406 -4.023438 33.398438 -2.390625 30.796875 -1.203125 C 28.191406 -0.0234375 25.273438 0.5625 22.046875 0.5625 C 18.160156 0.5625 14.695312 -0.265625 11.65625 -1.921875 C 8.625 -3.578125 6.253906 -5.945312 4.546875 -9.03125 C 2.835938 -12.113281 1.984375 -15.71875 1.984375 -19.84375 C 1.984375 -23.96875 2.828125 -27.570312 4.515625 -30.65625 C 6.203125 -33.738281 8.5625 -36.109375 11.59375 -37.765625 C 14.625 -39.421875 18.109375 -40.25 22.046875 -40.25 C 25.890625 -40.25 29.300781 -39.441406 32.28125 -37.828125 C 35.269531 -36.222656 37.609375 -33.925781 39.296875 -30.9375 C 40.984375 -27.945312 41.828125 -24.460938 41.828125 -20.484375 Z M 29.375 -23.6875 C 29.375 -25.769531 28.660156 -27.425781 27.234375 -28.65625 C 25.816406 -29.894531 24.039062 -30.515625 21.90625 -30.515625 C 19.863281 -30.515625 18.144531 -29.921875 16.75 -28.734375 C 15.351562 -27.546875 14.488281 -25.863281 14.15625 -23.6875 Z M 29.375 -23.6875 "/></g></g></g><g fill="#122348" fill-opacity="1"><g transform="translate(172.71487, 275.820753)"><g><path d="M 16.578125 -34.0625 C 17.753906 -35.914062 19.382812 -37.410156 21.46875 -38.546875 C 23.5625 -39.679688 26.007812 -40.25 28.8125 -40.25 C 32.082031 -40.25 35.039062 -39.421875 37.6875 -37.765625 C 40.34375 -36.109375 42.441406 -33.738281 43.984375 -30.65625 C 45.523438 -27.570312 46.296875 -23.992188 46.296875 -19.921875 C 46.296875 -15.835938 45.523438 -12.242188 43.984375 -9.140625 C 42.441406 -6.035156 40.34375 -3.640625 37.6875 -1.953125 C 35.039062 -0.273438 32.082031 0.5625 28.8125 0.5625 C 26.0625 0.5625 23.628906 -0.00390625 21.515625 -1.140625 C 19.398438 -2.273438 17.753906 -3.742188 16.578125 -5.546875 L 16.578125 18.921875 L 4.40625 18.921875 L 4.40625 -39.6875 L 16.578125 -39.6875 Z M 33.921875 -19.921875 C 33.921875 -22.953125 33.078125 -25.332031 31.390625 -27.0625 C 29.710938 -28.789062 27.640625 -29.65625 25.171875 -29.65625 C 22.753906 -29.65625 20.703125 -28.773438 19.015625 -27.015625 C 17.335938 -25.265625 16.5 -22.875 16.5 -19.84375 C 16.5 -16.8125 17.335938 -14.414062 19.015625 -12.65625 C 20.703125 -10.90625 22.753906 -10.03125 25.171875 -10.03125 C 27.597656 -10.03125 29.660156 -10.914062 31.359375 -12.6875 C 33.066406 -14.46875 33.921875 -16.878906 33.921875 -19.921875 Z M 33.921875 -19.921875 "/></g></g></g><g fill="#122348" fill-opacity="1"><g transform="translate(221.007316, 275.820753)"><g><path d="M 1.984375 -19.921875 C 1.984375 -23.992188 2.753906 -27.570312 4.296875 -30.65625 C 5.835938 -33.738281 7.9375 -36.109375 10.59375 -37.765625 C 13.25 -39.421875 16.210938 -40.25 19.484375 -40.25 C 22.285156 -40.25 24.738281 -39.679688 26.84375 -38.546875 C 28.957031 -37.410156 30.582031 -35.914062 31.71875 -34.0625 L 31.71875 -39.6875 L 43.890625 -39.6875 L 43.890625 0 L 31.71875 0 L 31.71875 -5.625 C 30.53125 -3.769531 28.878906 -2.273438 26.765625 -1.140625 C 24.660156 -0.00390625 22.210938 0.5625 19.421875 0.5625 C 16.191406 0.5625 13.25 -0.273438 10.59375 -1.953125 C 7.9375 -3.640625 5.835938 -6.035156 4.296875 -9.140625 C 2.753906 -12.242188 1.984375 -15.835938 1.984375 -19.921875 Z M 31.71875 -19.84375 C 31.71875 -22.875 30.875 -25.265625 29.1875 -27.015625 C 27.507812 -28.773438 25.460938 -29.65625 23.046875 -29.65625 C 20.628906 -29.65625 18.578125 -28.789062 16.890625 -27.0625 C 15.210938 -25.332031 14.375 -22.953125 14.375 -19.921875 C 14.375 -16.878906 15.210938 -14.46875 16.890625 -12.6875 C 18.578125 -10.914062 20.628906 -10.03125 23.046875 -10.03125 C 25.460938 -10.03125 27.507812 -10.90625 29.1875 -12.65625 C 30.875 -14.414062 31.71875 -16.8125 31.71875 -19.84375 Z M 31.71875 -19.84375 "/></g></g></g><g fill="#122348" fill-opacity="1"><g transform="translate(269.299763, 275.820753)"><g><path d="M 26.53125 -10.3125 L 26.53125 0 L 20.34375 0 C 15.9375 0 12.5 -1.078125 10.03125 -3.234375 C 7.5625 -5.390625 6.328125 -8.910156 6.328125 -13.796875 L 6.328125 -29.59375 L 1.5 -29.59375 L 1.5 -39.6875 L 6.328125 -39.6875 L 6.328125 -49.359375 L 18.5 -49.359375 L 18.5 -39.6875 L 26.453125 -39.6875 L 26.453125 -29.59375 L 18.5 -29.59375 L 18.5 -13.65625 C 18.5 -12.46875 18.78125 -11.613281 19.34375 -11.09375 C 19.914062 -10.570312 20.863281 -10.3125 22.1875 -10.3125 Z M 26.53125 -10.3125 "/></g></g></g><g fill="#122348" fill-opacity="1"><g transform="translate(298.175648, 275.820753)"><g><path d="M 28.8125 -40.109375 C 33.363281 -40.109375 37.015625 -38.601562 39.765625 -35.59375 C 42.515625 -32.582031 43.890625 -28.445312 43.890625 -23.1875 L 43.890625 0 L 31.796875 0 L 31.796875 -21.546875 C 31.796875 -24.203125 31.109375 -26.265625 29.734375 -27.734375 C 28.359375 -29.203125 26.507812 -29.9375 24.1875 -29.9375 C 21.863281 -29.9375 20.015625 -29.203125 18.640625 -27.734375 C 17.265625 -26.265625 16.578125 -24.203125 16.578125 -21.546875 L 16.578125 0 L 4.40625 0 L 4.40625 -52.625 L 16.578125 -52.625 L 16.578125 -34.359375 C 17.804688 -36.109375 19.488281 -37.503906 21.625 -38.546875 C 23.757812 -39.585938 26.15625 -40.109375 28.8125 -40.109375 Z M 28.8125 -40.109375 "/></g></g></g></svg>