<svg xmlns="http://www.w3.org/2000/svg" xmlns:xlink="http://www.w3.org/1999/xlink" width="500" zoomAndPan="magnify" viewBox="0 0 375 374.999991" height="500" preserveAspectRatio="xMidYMid meet" version="1.0"><defs><clipPath id="5793e6a5ca"><path d="M 51 75 L 324 75 L 324 314.882812 L 51 314.882812 Z M 51 75 " clip-rule="nonzero"/></clipPath></defs><rect x="-37.5" width="450" fill="#ffffff" y="-37.499999" height="449.999989" fill-opacity="1"/><rect x="-37.5" width="450" fill="#ffffff" y="-37.499999" height="449.999989" fill-opacity="1"/><g clip-path="url(#5793e6a5ca)"><path fill="#206b21" d="M 176.097656 286.546875 C 185.347656 289.8125 194.757812 291.445312 204.332031 291.445312 C 227.828125 291.445312 252.199219 281.597656 277.164062 262.015625 C 287.175781 276.539062 297.238281 292.640625 307.082031 310.699219 C 308.605469 313.527344 311.542969 315.105469 314.535156 315.105469 C 315.894531 315.105469 317.308594 314.78125 318.613281 314.074219 C 322.75 311.84375 324.21875 306.675781 321.988281 302.539062 C 311.164062 282.742188 300.175781 265.171875 289.1875 249.449219 C 292.503906 244.71875 295.171875 239.496094 297.074219 233.949219 C 311.433594 191.628906 307.898438 156.816406 286.628906 130.433594 C 229.789062 59.882812 65.621094 77.5625 58.660156 78.378906 C 56.265625 78.648438 54.089844 79.957031 52.675781 81.914062 C 51.261719 83.871094 50.773438 86.375 51.316406 88.710938 C 52.894531 95.566406 90.699219 256.304688 176.097656 286.546875 Z M 273.46875 141.042969 C 290.820312 162.582031 293.375 192.007812 281.027344 228.453125 C 280.320312 230.574219 279.394531 232.589844 278.417969 234.546875 C 202.535156 134.460938 130.191406 122.164062 126.601562 121.621094 C 121.976562 120.914062 117.625 124.125 116.917969 128.746094 C 116.210938 133.371094 119.417969 137.722656 124.042969 138.429688 C 124.859375 138.539062 194.320312 150.34375 267.265625 248.144531 C 267.101562 248.308594 266.9375 248.472656 266.722656 248.636719 C 236.421875 272.351562 207.867188 279.75 181.757812 270.5 C 116.15625 247.328125 79.710938 128.964844 70.300781 94.425781 C 106.039062 91.757812 229.734375 86.863281 273.46875 141.042969 Z M 273.46875 141.042969 " fill-opacity="1" fill-rule="nonzero"/></g></svg>